<svg id="Layer_1" data-name="Layer 1" xmlns="http://www.w3.org/2000/svg" viewBox="0 0 971.01 365.64"><defs><style>.cls-1{fill:#818181;}.cls-2{fill:#fdb819;}.cls-3{fill:#aaa;}.cls-4{fill:#cbcbcb;}.cls-5{fill:#e09705;}.cls-6{fill:#e2dfe2;}.cls-7{fill:#544f57;}.cls-8{fill:#736e6e;}</style></defs><path class="cls-1" d="M541.55,150.86a10,10,0,0,0-3.89-8.45q-3.88-2.94-14-6.21a99.44,99.44,0,0,1-16-6.44q-16.06-8.68-16.06-23.38a22.75,22.75,0,0,1,4.31-13.62A28.15,28.15,0,0,1,508.3,83.4,46.67,46.67,0,0,1,526.4,80a42.37,42.37,0,0,1,18,3.65A28.63,28.63,0,0,1,556.66,94,27,27,0,0,1,561,109.17H541.61q0-6.48-4.08-10.07t-11.46-3.59q-7.11,0-11.07,3a9.51,9.51,0,0,0-3.95,7.93q0,4.59,4.63,7.7T529.31,120q16.58,5,24.15,12.37A24.62,24.62,0,0,1,561,150.73q0,12.24-9.25,19.2t-24.93,7a48.21,48.21,0,0,1-19.81-4A31.37,31.37,0,0,1,493.41,162a27.94,27.94,0,0,1-4.69-16.06h19.49q0,15.6,18.64,15.6,6.93,0,10.81-2.81A9.17,9.17,0,0,0,541.55,150.86Z" transform="translate(-25.22 -12.82)"/><path class="cls-1" d="M651.61,130.6q0,13.92-4.92,24.41a37.1,37.1,0,0,1-14.08,16.18,41.61,41.61,0,0,1-41.92.07,37.48,37.48,0,0,1-14.25-16.09,55.33,55.33,0,0,1-5.11-24v-4.67q0-13.9,5-24.5A37.31,37.31,0,0,1,590.53,85.7a41.57,41.57,0,0,1,41.88,0A37.31,37.31,0,0,1,646.59,102q5,10.59,5,24.44Zm-19.68-4.27q0-14.83-5.31-22.54t-15.15-7.7q-9.78,0-15.09,7.61T591,126v4.6q0,14.43,5.31,22.4t15.28,8q9.76,0,15-7.67t5.31-22.37Z" transform="translate(-25.22 -12.82)"/><path class="cls-1" d="M742.38,175.59H723l-37.81-62v62H665.72V81.33h19.42L723,143.48V81.33h19.36Z" transform="translate(-25.22 -12.82)"/><path class="cls-1" d="M808.22,150.86a10,10,0,0,0-3.89-8.45q-3.89-2.94-14-6.21a99.44,99.44,0,0,1-16-6.44q-16.07-8.68-16.06-23.38a22.75,22.75,0,0,1,4.31-13.62A28.15,28.15,0,0,1,775,83.4,46.67,46.67,0,0,1,793.07,80a42.37,42.37,0,0,1,18,3.65A28.63,28.63,0,0,1,823.33,94a27,27,0,0,1,4.37,15.15H808.28q0-6.48-4.08-10.07t-11.46-3.59q-7.11,0-11.07,3a9.51,9.51,0,0,0-3.95,7.93q0,4.59,4.63,7.7T796,120q16.57,5,24.15,12.37a24.62,24.62,0,0,1,7.57,18.38q0,12.24-9.25,19.2t-24.93,7a48.21,48.21,0,0,1-19.81-4A31.37,31.37,0,0,1,760.08,162a27.94,27.94,0,0,1-4.69-16.06h19.49q0,15.6,18.64,15.6,6.93,0,10.81-2.81A9.17,9.17,0,0,0,808.22,150.86Z" transform="translate(-25.22 -12.82)"/><path class="cls-1" d="M912.19,81.33v62.09q0,15.47-9.68,24.47t-26.44,9q-16.52,0-26.22-8.74t-9.91-24V81.33h19.42v62.22q0,9.25,4.44,13.49t12.27,4.25q16.38,0,16.63-17.23V81.33Z" transform="translate(-25.22 -12.82)"/><path class="cls-1" d="M948.71,160h47.52v15.6h-71.8V164.2L971,97.06H924.49V81.33h70.7V92.47Z" transform="translate(-25.22 -12.82)"/><path class="cls-2" d="M522.66,286.14v41.8H499.43V209.29h44a48.71,48.71,0,0,1,22.34,4.89,34.9,34.9,0,0,1,14.83,13.89,40.33,40.33,0,0,1,5.19,20.5q0,17.43-11.35,27.5T543,286.14Zm0-19.81h20.75q9.23,0,14.06-4.56t4.84-13q0-8.72-4.88-14.1T544,229.09h-21.3Z" transform="translate(-25.22 -12.82)"/><path class="cls-2" d="M651.58,303.49H610.86l-7.75,24.45h-24.7l42-118.65h21.53l42.2,118.65H659.4Zm-34.45-19.8h28.18l-14.17-44.41Z" transform="translate(-25.22 -12.82)"/><path class="cls-2" d="M736.37,284.51H717.86v43.43H694.64V209.29h41.89q20,0,30.81,9.37t10.84,26.48q0,12.15-5,20.26t-15.14,12.91l24.39,48.49v1.14H757.51ZM717.86,264.7H736.6q8.76,0,13.55-4.68T755,247.1c0-5.59-1.51-10-4.53-13.2s-7.65-4.81-13.89-4.81H717.86Z" transform="translate(-25.22 -12.82)"/><path class="cls-2" d="M884.34,288.42Q883,307.58,870.9,318.57t-31.94,11q-21.68,0-34.1-15.36T792.43,272v-7.26q0-17.1,5.73-30.15t16.38-20q10.63-7,24.73-7,19.51,0,31.44,11t13.78,30.89H861.26q-.84-11.51-6.07-16.67t-15.92-5.18q-11.61,0-17.38,8.77T816,263.64v9q0,19.23,5.53,28.11T839,309.61q10.77,0,16.07-5.18t6.08-16Zm-36.86,39-.85,4.73q11.61,2.2,11.61,14.1a16.68,16.68,0,0,1-7.08,14.18q-7.08,5.21-19.94,5.21l-.54-13.61q8.67,0,8.67-6.6,0-3.42-2.59-4.68c-1.73-.85-4.53-1.4-8.4-1.67l2.4-11.66Z" transform="translate(-25.22 -12.82)"/><path class="cls-2" d="M963.24,303.49H922.51l-7.74,24.45h-24.7l42-118.65h21.52l42.2,118.65h-24.7Zm-34.46-19.8H957L942.8,239.28Z" transform="translate(-25.22 -12.82)"/><path class="cls-3" d="M174.41,267.14H303.88v98.5H174.41Z" transform="translate(-25.22 -12.82)"/><path class="cls-4" d="M167.79,378.46a12.67,12.67,0,0,1-12.5-12.82v-85.2h25v85.2A12.66,12.66,0,0,1,167.79,378.46Z" transform="translate(-25.22 -12.82)"/><path class="cls-4" d="M212.28,378.46a12.67,12.67,0,0,1-12.5-12.82v-85.2h25v85.2A12.66,12.66,0,0,1,212.28,378.46Z" transform="translate(-25.22 -12.82)"/><path class="cls-4" d="M256.77,378.46a12.67,12.67,0,0,1-12.5-12.82v-85.2h25v85.2a12.67,12.67,0,0,1-12.5,12.82Z" transform="translate(-25.22 -12.82)"/><path class="cls-4" d="M301.26,378.46a12.67,12.67,0,0,1-12.5-12.82v-85.2h25v85.2a12.67,12.67,0,0,1-12.5,12.82Z" transform="translate(-25.22 -12.82)"/><path class="cls-4" d="M277.1,229.63c0-36.31,28.8-65.86,64.21-65.86s64.21,29.55,64.21,65.86-28.81,65.86-64.21,65.86S277.1,265.94,277.1,229.63Zm25.29,0c0,22,17.46,39.91,38.92,39.91s38.91-17.9,38.91-39.91-17.45-39.92-38.91-39.92S302.39,207.62,302.39,229.63Z" transform="translate(-25.22 -12.82)"/><path class="cls-3" d="M345.79,269.27a36.91,36.91,0,0,0,4.48.27c21.46,0,38.92-17.9,38.92-39.91s-17.46-39.92-38.92-39.92a36.78,36.78,0,0,0-4.48.28c19.35,2.28,34.43,19.19,34.43,39.64S365.14,267,345.79,269.27Z" transform="translate(-25.22 -12.82)"/><path class="cls-4" d="M334,220.38,241.54,125.6l69-70.73,92.41,94.78Z" transform="translate(-25.22 -12.82)"/><path class="cls-3" d="M256,148.82l-18.57-19,69-70.73,18.56,19Z" transform="translate(-25.22 -12.82)"/><path class="cls-2" d="M439,130.94l-10.58,14.72-7.58,10.54L408.9,172.79l-121-124.14,16.17-12.22,10.28-7.78L328.68,17.8A24.4,24.4,0,0,1,361,20.29l75.53,77.47A26,26,0,0,1,439,130.94Z" transform="translate(-25.22 -12.82)"/><path class="cls-5" d="M319,80.57,287.88,48.66,328.67,17.8A24.42,24.42,0,0,1,361,20.29l31.12,31.92a24.41,24.41,0,0,0-32.35-2.49Z" transform="translate(-25.22 -12.82)"/><path class="cls-4" d="M127.75,295.49c-35.41,0-64.21-29.55-64.21-65.86s28.8-65.86,64.21-65.86S192,193.32,192,229.63,163.15,295.49,127.75,295.49Zm0-105.78c-21.46,0-38.92,17.91-38.92,39.92s17.46,39.91,38.92,39.91,38.91-17.9,38.91-39.91-17.45-39.92-38.91-39.92Z" transform="translate(-25.22 -12.82)"/><path class="cls-3" d="M74.19,229.63c0-34.47,26-62.85,58.88-65.63-1.75-.15-3.53-.23-5.32-.23-35.4,0-64.21,29.55-64.21,65.86s28.81,65.86,64.21,65.86c1.79,0,3.57-.08,5.32-.23C100.15,292.48,74.19,264.1,74.19,229.63Z" transform="translate(-25.22 -12.82)"/><path class="cls-4" d="M66.14,149.6l92.41-94.78,68.95,70.73-92.41,94.78Z" transform="translate(-25.22 -12.82)"/><path class="cls-3" d="M66.13,149.6l18.56-19,69,70.73-18.56,19Z" transform="translate(-25.22 -12.82)"/><path class="cls-6" d="M252.66,114.11H216.39L124,208.91l31.33,99.77H313.76l31.33-99.77" transform="translate(-25.22 -12.82)"/><path class="cls-1" d="M132.62,161.92a12.05,12.05,0,0,1-17.33,0L93,139.08l17.33-17.78,22.27,22.84A12.82,12.82,0,0,1,132.62,161.92Z" transform="translate(-25.22 -12.82)"/><path class="cls-1" d="M170.58,123a12,12,0,0,1-17.33,0L131,100.14l17.33-17.77,22.27,22.84a12.8,12.8,0,0,1,0,17.77Z" transform="translate(-25.22 -12.82)"/><path class="cls-2" d="M181.18,48.65l-121,124.14L48.23,156.2l-7.59-10.54L30.07,130.94A26,26,0,0,1,32.5,97.76L108,20.29a24.41,24.41,0,0,1,32.34-2.49l14.35,10.85L165,36.42Z" transform="translate(-25.22 -12.82)"/><path class="cls-5" d="M91.27,140.87,60.16,172.79,30.07,130.94A26,26,0,0,1,32.5,97.77L63.62,65.85A26,26,0,0,0,61.19,99Z" transform="translate(-25.22 -12.82)"/><path class="cls-1" d="M336.44,161.92a12.05,12.05,0,0,0,17.33,0L376,139.08,358.7,121.3l-22.26,22.84A12.8,12.8,0,0,0,336.44,161.92Z" transform="translate(-25.22 -12.82)"/><path class="cls-1" d="M298.48,123a12,12,0,0,0,17.33,0l22.26-22.84L320.75,82.37l-22.27,22.84a12.78,12.78,0,0,0,0,17.77Z" transform="translate(-25.22 -12.82)"/><path class="cls-5" d="M165,36.42,48.23,156.2l-7.59-10.54,114.08-117Z" transform="translate(-25.22 -12.82)"/><path class="cls-5" d="M428.41,145.66l-7.58,10.54L304.05,36.43l10.28-7.78Z" transform="translate(-25.22 -12.82)"/><ellipse class="cls-1" cx="209.31" cy="184.45" rx="29.44" ry="30.19"/><ellipse class="cls-1" cx="288.54" cy="255.19" rx="39.65" ry="40.67"/><ellipse class="cls-1" cx="141.9" cy="277.53" rx="47.55" ry="48.77"/><ellipse class="cls-6" cx="141.9" cy="277.53" rx="12.75" ry="13.08"/><ellipse class="cls-6" cx="288.54" cy="255.19" rx="12.75" ry="13.08"/><path class="cls-7" d="M129.82,266.58a6.21,6.21,0,0,1-4.52-1.95,6.59,6.59,0,0,1,.1-9.16l85-85.22a6.22,6.22,0,0,1,8.94.1,6.61,6.61,0,0,1-.1,9.17l-85,85.21A6.18,6.18,0,0,1,129.82,266.58Z" transform="translate(-25.22 -12.82)"/><path class="cls-7" d="M330,237.4a6.17,6.17,0,0,1-3.69-1.23l-75.38-55.69a6.59,6.59,0,0,1-1.44-9,6.22,6.22,0,0,1,8.82-1.47l75.38,55.69a6.57,6.57,0,0,1,1.44,9A6.27,6.27,0,0,1,330,237.4Z" transform="translate(-25.22 -12.82)"/><path class="cls-7" d="M199.79,332.27a6.22,6.22,0,0,1-4.52-1.95,6.6,6.6,0,0,1,.09-9.16L280,236a6.21,6.21,0,0,1,8.93.09,6.6,6.6,0,0,1-.08,9.17l-84.65,85.14a6.21,6.21,0,0,1-4.42,1.86Z" transform="translate(-25.22 -12.82)"/><path class="cls-8" d="M234.53,234c-19.72,0-35.76-16.46-35.76-36.68s16-36.67,35.76-36.67,35.75,16.45,35.75,36.67S254.24,234,234.53,234Zm0-60.39c-12.75,0-23.12,10.64-23.12,23.71S221.78,221,234.53,221s23.12-10.64,23.12-23.72-10.37-23.71-23.12-23.71Z" transform="translate(-25.22 -12.82)"/><path class="cls-8" d="M313.76,315.16c-25.35,0-46-21.15-46-47.15s20.62-47.15,46-47.15,46,21.15,46,47.15S339.11,315.16,313.76,315.16Zm0-81.34c-18.38,0-33.33,15.34-33.33,34.19s14.95,34.19,33.33,34.19,33.33-15.34,33.33-34.19S332.14,233.82,313.76,233.82Z" transform="translate(-25.22 -12.82)"/><path class="cls-8" d="M167.12,345.6c-29.71,0-53.87-24.79-53.87-55.25s24.16-55.25,53.87-55.25S221,259.88,221,290.35s-24.16,55.25-53.86,55.25Zm0-97.54c-22.74,0-41.24,19-41.24,42.29s18.5,42.29,41.24,42.29,41.23-19,41.23-42.29S189.85,248.06,167.12,248.06Z" transform="translate(-25.22 -12.82)"/></svg>